<svg width = "25"
     height = "24"
     viewBox = "0 0 25 24"
     fill = "none"
     xmlns = "http://www.w3.org/2000/svg">
	<g clip-path = "url(#clip0_2_383)">
		<path fill-rule = "evenodd"
		      clip-rule = "evenodd"
		      d = "M2.16675 8.99401C2.16622 8.20621 2.3211 7.42605 2.62252 6.69819C2.92393 5.97034 3.36596 5.30909 3.9233 4.75231C4.48063 4.19553 5.14233 3.75416 5.87048 3.45348C6.59864 3.15279 7.37895 2.99869 8.16675 3.00001H16.1667C19.4798 3.00001 22.1668 5.69501 22.1668 8.99401V20C22.1668 20.5523 21.719 21 21.1668 21H8.16675C4.85375 21 2.16675 18.305 2.16675 15.006V8.99401ZM10.1667 11.5C10.1667 12.3284 9.49518 13 8.66675 13C7.83832 13 7.16675 12.3284 7.16675 11.5C7.16675 10.6716 7.83832 10 8.66675 10C9.49518 10 10.1667 10.6716 10.1667 11.5ZM15.6667 13C16.4952 13 17.1667 12.3284 17.1667 11.5C17.1667 10.6716 16.4952 10 15.6667 10C14.8383 10 14.1667 10.6716 14.1667 11.5C14.1667 12.3284 14.8383 13 15.6667 13Z"
		      fill = "url(#paint0_linear_2_383)"/>
	</g>
	<defs>
		<linearGradient id = "paint0_linear_2_383"
		                x1 = "-2.76717"
		                y1 = "9.31793"
		                x2 = "9.40303"
		                y2 = "27.9473"
		                gradientUnits = "userSpaceOnUse">
			<stop stop-color = "#E3E3E3"/>
			<stop offset = "1"
			      stop-color = "#CDCDCD"/>
		</linearGradient>
		<clipPath id = "clip0_2_383">
			<rect width = "20"
			      height = "20"
			      fill = "white"
			      transform = "translate(2.16675 2)"/>
		</clipPath>
	</defs>
</svg>
