<svg width = "25"
     height = "24"
     viewBox = "0 0 25 24"
     fill = "none"
     xmlns = "http://www.w3.org/2000/svg">
	<path d = "M21.31 3.47888C21.31 3.3244 21.2842 3.19567 21.2508 3.07981C20.6045 2.90989 19.7652 3.10556 19.0546 3.45056C18.9079 3.52007 18.5629 3.73119 18.0531 4.04272C17.842 4.17146 17.654 4.28474 17.5716 4.33108C17.5639 4.33623 17.5588 4.34396 17.551 4.3491C16.1556 3.49948 14.5233 3 12.7725 3C7.68505 3 3.54505 7.14 3.54505 12.2275C3.54505 13.9344 4.01878 15.5281 4.82722 16.8978C3.86945 18.3731 3.39572 19.439 3.5193 20.1599C3.54505 20.3066 3.79994 20.3324 3.93897 20.3324C6.78908 20.3324 13.308 14.076 14.119 13.2779C17.7004 9.75582 21.3126 5.45105 21.31 3.47888ZM8.48834 14.2588C7.57949 14.2588 6.84057 13.5199 6.84057 12.6111C6.84057 11.7022 7.57949 10.9633 8.48834 10.9633C9.39718 10.9633 10.1361 11.7022 10.1361 12.6111C10.1361 13.5199 9.39718 14.2588 8.48834 14.2588ZM11.3874 9.64511C10.2983 9.64511 9.41005 8.75687 9.41005 7.6678C9.41005 6.57873 10.2983 5.69049 11.3874 5.69049C12.4764 5.69049 13.3647 6.57873 13.3647 7.6678C13.3647 8.75944 12.479 9.64511 11.3874 9.64511Z"
	      fill = "url(#paint0_linear_2_366)"/>
	<path d = "M20.633 7.41846C19.2504 9.47044 17.0774 11.9369 14.9096 14.0687C14.32 14.6506 10.7438 18.116 7.73926 19.962C7.74183 19.9595 7.74441 19.9595 7.74698 19.9569C9.19392 20.9018 10.9189 21.4553 12.7727 21.4553C17.8601 21.4553 22.0001 17.3153 22.0001 12.2279C22.0001 10.4642 21.4955 8.82163 20.633 7.41846ZM15.3627 18.1598C14.6367 18.1598 14.0445 17.5676 14.0445 16.8416C14.0445 16.1155 14.6367 15.5234 15.3627 15.5234C16.0888 15.5234 16.6809 16.1155 16.6809 16.8416C16.6809 17.5676 16.0888 18.1598 15.3627 18.1598Z"
	      fill = "url(#paint1_linear_2_366)"/>
	<defs>
		<linearGradient id = "paint0_linear_2_366"
		                x1 = "31.1055"
		                y1 = "27.5542"
		                x2 = "1.76017"
		                y2 = "-14.8048"
		                gradientUnits = "userSpaceOnUse">
			<stop stop-color = "#4EB06E"/>
			<stop offset = "1"
			      stop-color = "#4EF384"/>
		</linearGradient>
		<linearGradient id = "paint1_linear_2_366"
		                x1 = "29.8436"
		                y1 = "27.304"
		                x2 = "5.98426"
		                y2 = "-6.74746"
		                gradientUnits = "userSpaceOnUse">
			<stop stop-color = "#4EB06E"/>
			<stop offset = "1"
			      stop-color = "#4EF384"/>
		</linearGradient>
	</defs>
</svg>
