<svg width = "25"
     height = "24"
     viewBox = "0 0 25 24"
     fill = "none"
     xmlns = "http://www.w3.org/2000/svg">
	<path fill-rule = "evenodd"
	      clip-rule = "evenodd"
	      d = "M22.5 12C22.5 17.5228 18.0228 22 12.5 22C6.97715 22 2.5 17.5228 2.5 12C2.5 6.47715 6.97715 2 12.5 2C18.0228 2 22.5 6.47715 22.5 12ZM17.0354 13.9011C17.1957 13.5192 17.016 13.0796 16.634 12.9194C16.2521 12.7591 15.8125 12.9388 15.6522 13.3208C15.1351 14.5533 13.9175 15.4167 12.5 15.4167C11.1052 15.4167 9.90394 14.5808 9.37304 13.3795C9.2056 13.0006 8.76274 12.8292 8.38388 12.9967C8.00501 13.1641 7.83361 13.607 8.00105 13.9858C8.76331 15.7107 10.49 16.9167 12.5 16.9167C14.5427 16.9167 16.2927 15.6712 17.0354 13.9011Z"
	      fill = "url(#paint0_linear_2_392)"/>
	<defs>
		<linearGradient id = "paint0_linear_2_392"
		                x1 = "-2.43392"
		                y1 = "9.01992"
		                x2 = "11.6059"
		                y2 = "28.3621"
		                gradientUnits = "userSpaceOnUse">
			<stop stop-color = "#E3E3E3"/>
			<stop offset = "1"
			      stop-color = "#CDCDCD"/>
		</linearGradient>
	</defs>
</svg>
