<svg width = "25"
     height = "24"
     viewBox = "0 0 25 24"
     fill = "none"
     xmlns = "http://www.w3.org/2000/svg">
	<g clip-path = "url(#clip0_2_373)">
		<path fill-rule = "evenodd"
		      clip-rule = "evenodd"
		      d = "M16.8333 3.3H8.83325C8.44665 3.3 8.13325 3.6134 8.13325 4V6H17.5333V4C17.5333 3.6134 17.2199 3.3 16.8333 3.3ZM6.83325 4V6H4.83325C3.72868 6 2.83325 6.89543 2.83325 8V19C2.83325 20.1046 3.72868 21 4.83325 21H20.8333C21.9378 21 22.8333 20.1046 22.8333 19V8C22.8333 6.89543 21.9378 6 20.8333 6H18.8333V4C18.8333 2.89543 17.9378 2 16.8333 2H8.83325C7.72868 2 6.83325 2.89543 6.83325 4ZM9.73325 10C9.2362 10 8.83325 10.4029 8.83325 10.9C8.83325 11.3971 9.2362 11.8 9.73325 11.8H15.9333C16.4303 11.8 16.8333 11.3971 16.8333 10.9C16.8333 10.4029 16.4303 10 15.9333 10H9.73325Z"
		      fill = "url(#paint0_linear_2_373)"/>
	</g>
	<defs>
		<linearGradient id = "paint0_linear_2_373"
		                x1 = "9.83325"
		                y1 = "2"
		                x2 = "12.8333"
		                y2 = "21"
		                gradientUnits = "userSpaceOnUse">
			<stop stop-color = "#E1E1E1"/>
			<stop offset = "1"
			      stop-color = "#CECECE"/>
		</linearGradient>
		<clipPath id = "clip0_2_373">
			<rect width = "20"
			      height = "20"
			      fill = "white"
			      transform = "translate(2.83325 2)"/>
		</clipPath>
	</defs>
</svg>
